<svg width="128" height="76" viewBox="0 0 128 76" fill="none" xmlns="http://www.w3.org/2000/svg">
<g filter="url(#filter0_i_48_100)">
<path fill-rule="evenodd" clip-rule="evenodd" d="M63.3514 24.822C44.4426 24.822 27.4281 31.9275 15.5712 39.8403L25.0286 3.76719C25.1868 3.15984 25.461 2.59023 25.8355 2.09098C26.2101 1.59174 26.6776 1.17267 27.2114 0.857759C27.7451 0.542848 28.3346 0.338289 28.946 0.255788C29.5575 0.173288 30.1789 0.21447 30.7747 0.376975L63.5803 9.35967L97.1437 0.163C97.7395 0.000217308 98.361 -0.0411663 98.9726 0.0412119C99.5841 0.12359 100.174 0.328111 100.707 0.643059C101.241 0.958007 101.709 1.37719 102.083 1.87657C102.458 2.37595 102.732 2.94572 102.89 3.55321L112.926 41.8579C101.026 33.2678 83.239 24.822 63.3514 24.822ZM7.42163 70.9255C22.0108 83.3597 40.0982 90.7544 59.0775 92.044L53.5225 113.233C53.3644 113.84 53.0902 114.41 52.7156 114.909C52.3411 115.408 51.8735 115.828 51.3398 116.142C50.806 116.457 50.2166 116.662 49.6051 116.744C48.9936 116.827 48.3722 116.786 47.7764 116.623L3.47858 104.493C2.27501 104.161 1.24973 103.356 0.627706 102.256C0.00568592 101.155 -0.162273 99.8474 0.160682 98.6205L7.42163 70.9255ZM120.122 69.3268L127.839 98.781C128.162 100.008 127.995 101.315 127.373 102.416C126.751 103.517 125.726 104.322 124.522 104.654L80.0638 116.837C79.468 117 78.8465 117.041 78.235 116.959C77.6235 116.876 77.034 116.672 76.5002 116.357C75.9664 116.042 75.4989 115.623 75.1244 115.123C74.7498 114.624 74.4757 114.054 74.3176 113.447L68.6874 91.9602C90.8626 90.2928 109.877 78.686 120.122 69.3268ZM63.5317 33.9006C68.2121 33.9006 72.7874 35.3146 76.679 37.9636C80.5705 40.6127 83.6036 44.3779 85.3947 48.7831C87.1858 53.1883 87.6543 58.0357 86.7412 62.7122C85.828 67.3887 83.5741 71.6843 80.2645 75.0558C76.9549 78.4274 72.7383 80.7234 68.1478 81.6534C63.5573 82.5835 58.7992 82.106 54.4751 80.2812C50.1511 78.4563 46.4553 75.3662 43.8552 71.4015C41.255 67.4369 39.8673 62.7757 39.8675 58.0076C39.8677 54.8417 40.4799 51.7068 41.6692 48.7819C42.8586 45.8571 44.6018 43.1995 46.7993 40.961C48.9968 38.7224 51.6056 36.9468 54.4767 35.7354C57.3479 34.5239 60.4241 33.9005 63.5317 33.9006Z" fill="#F0F0F0"/>
</g>
<defs>
<filter id="filter0_i_48_100" x="0" y="0" width="128" height="121" filterUnits="userSpaceOnUse" color-interpolation-filters="sRGB">
<feFlood flood-opacity="0" result="BackgroundImageFix"/>
<feBlend mode="normal" in="SourceGraphic" in2="BackgroundImageFix" result="shape"/>
<feColorMatrix in="SourceAlpha" type="matrix" values="0 0 0 0 0 0 0 0 0 0 0 0 0 0 0 0 0 0 127 0" result="hardAlpha"/>
<feOffset dy="7"/>
<feGaussianBlur stdDeviation="2"/>
<feComposite in2="hardAlpha" operator="arithmetic" k2="-1" k3="1"/>
<feColorMatrix type="matrix" values="0 0 0 0 1 0 0 0 0 1 0 0 0 0 1 0 0 0 0.65 0"/>
<feBlend mode="normal" in2="shape" result="effect1_innerShadow_48_100"/>
</filter>
</defs>
</svg>
