<svg width="9" height="14" viewBox="0 0 9 14" fill="none" xmlns="http://www.w3.org/2000/svg">
<path d="M2.34592 0.777834L7.97092 6.40283C8.04958 6.48122 8.11199 6.57436 8.15457 6.67692C8.19716 6.77948 8.21908 6.88944 8.21908 7.00049C8.21908 7.11154 8.19716 7.2215 8.15457 7.32405C8.11199 7.42661 8.04958 7.51976 7.97092 7.59815L2.34592 13.2231C2.18741 13.3817 1.97242 13.4707 1.74826 13.4707C1.5241 13.4707 1.30911 13.3817 1.1506 13.2231C0.992096 13.0646 0.903047 12.8497 0.903047 12.6255C0.903047 12.4013 0.992096 12.1863 1.1506 12.0278L6.17865 6.99979L1.1499 1.97174C0.991393 1.81323 0.902343 1.59825 0.902343 1.37408C0.902343 1.14992 0.991393 0.934937 1.1499 0.776428C1.30841 0.61792 1.52339 0.528869 1.74756 0.528869C1.97172 0.528869 2.18671 0.61792 2.34521 0.776428L2.34592 0.777834Z" fill="currentColor"/>
</svg>
