<svg width="18" height="18" viewBox="0 0 18 18" fill="none" xmlns="http://www.w3.org/2000/svg">
<path d="M15.75 4.50014C15.75 4.27959 15.6212 4.07936 15.4201 3.98817L9.23264 1.17567C9.08487 1.10811 8.91513 1.10811 8.76736 1.17567L2.57986 3.98817C2.37881 4.07936 2.25 4.27959 2.25 4.50014C2.25 4.72069 2.37881 4.92091 2.57986 5.0121L8.76736 7.8246C8.84125 7.85838 8.92062 7.87514 9 7.87514C9.07938 7.87514 9.15875 7.85838 9.23264 7.8246L15.4201 5.0121C15.6212 4.92091 15.75 4.72069 15.75 4.50014Z" fill="url(#paint0_linear_13_129)"/>
<path d="M8.10764 9.05075L1.92014 6.23825C1.74683 6.15942 1.54413 6.17398 1.3829 6.27725C1.22223 6.3808 1.125 6.55905 1.125 6.75021V13.5002C1.125 13.7208 1.25381 13.921 1.45486 14.0122L7.64236 16.8247C7.71652 16.8585 7.7959 16.8752 7.875 16.8752C7.98129 16.8752 8.08731 16.845 8.1796 16.7857C8.34027 16.6821 8.4375 16.5039 8.4375 16.3127V9.56271C8.4375 9.34216 8.30869 9.14194 8.10764 9.05075Z" fill="url(#paint1_linear_13_129)"/>
<path d="M16.6171 6.27705C16.4561 6.17323 16.2534 6.15895 16.0799 6.23805L9.89236 9.05055C9.69131 9.14174 9.5625 9.34196 9.5625 9.56251V16.3125C9.5625 16.5037 9.65973 16.6819 9.8204 16.7855C9.91269 16.8448 10.0187 16.875 10.125 16.875C10.2041 16.875 10.2835 16.8583 10.3576 16.8245L16.5451 14.012C16.7462 13.9208 16.875 13.7206 16.875 13.5V6.75001C16.875 6.55885 16.7778 6.3806 16.6171 6.27705Z" fill="url(#paint2_linear_13_129)"/>
<defs>
<linearGradient id="paint0_linear_13_129" x1="2.25" y1="4.50007" x2="15.75" y2="4.50007" gradientUnits="userSpaceOnUse">
<stop stop-color="#2239BD"/>
<stop offset="1" stop-color="#46D3F6"/>
</linearGradient>
<linearGradient id="paint1_linear_13_129" x1="1.125" y1="11.5316" x2="8.4375" y2="11.5316" gradientUnits="userSpaceOnUse">
<stop stop-color="#2239BD"/>
<stop offset="1" stop-color="#46D3F6"/>
</linearGradient>
<linearGradient id="paint2_linear_13_129" x1="9.5625" y1="11.5313" x2="16.875" y2="11.5313" gradientUnits="userSpaceOnUse">
<stop stop-color="#2239BD"/>
<stop offset="1" stop-color="#46D3F6"/>
</linearGradient>
</defs>
</svg>
