<svg width="120" height="80" viewBox="0 0 120 80" fill="none" xmlns="http://www.w3.org/2000/svg">
<g filter="url(#filter0_i_18_260)">
<path d="M60 10C32.386 10 10 32.386 10 60s22.386 50 50 50 50-22.386 50-50S87.614 10 60 10zm0 90c-22.091 0-40-17.909-40-40s17.909-40 40-40 40 17.909 40 40-17.909 40-40 40z" fill="#F6F6F6"/>
<path d="M60 20c-22.091 0-40 17.909-40 40s17.909 40 40 40 40-17.909 40-40-17.909-40-40-40zm0 70c-16.569 0-30-13.431-30-30s13.431-30 30-30 30 13.431 30 30-13.431 30-30 30z" fill="#F6F6F6"/>
<path d="M60 30c-16.569 0-30 13.431-30 30s13.431 30 30 30 30-13.431 30-30-13.431-30-30-30zm0 50c-11.046 0-20-8.954-20-20s8.954-20 20-20 20 8.954 20 20-8.954 20-20 20z" fill="#F6F6F6"/>
<path d="M60 40c-11.046 0-20 8.954-20 20s8.954 20 20 20 20-8.954 20-20-8.954-20-20-20zm0 30c-5.523 0-10-4.477-10-10s4.477-10 10-10 10 4.477 10 10-4.477 10-10 10z" fill="#F6F6F6"/>
</g>
<defs>
<filter id="filter0_i_18_260" x="10" y="10" width="100" height="100" filterUnits="userSpaceOnUse" color-interpolation-filters="sRGB">
<feFlood flood-opacity="0" result="BackgroundImageFix"/>
<feBlend mode="normal" in="SourceGraphic" in2="BackgroundImageFix" result="shape"/>
<feColorMatrix in="SourceAlpha" type="matrix" values="0 0 0 0 0 0 0 0 0 0 0 0 0 0 0 0 0 0 127 0" result="hardAlpha"/>
<feOffset dy="5"/>
<feGaussianBlur stdDeviation="2"/>
<feComposite in2="hardAlpha" operator="arithmetic" k2="-1" k3="1"/>
<feColorMatrix type="matrix" values="0 0 0 0 1 0 0 0 0 1 0 0 0 0 1 0 0 0 0.5 0"/>
<feBlend mode="normal" in2="shape" result="effect1_innerShadow_18_260"/>
</filter>
</defs>
</svg>
