<svg width="28" height="28" viewBox="0 0 28 28" fill="none" xmlns="http://www.w3.org/2000/svg">
<path d="M14 2C7.373 2 2 7.373 2 14s5.373 12 12 12 12-5.373 12-12S20.627 2 14 2zm0 22c-5.523 0-10-4.477-10-10S8.477 4 14 4s10 4.477 10 10-4.477 10-10 10z" fill="url(#paint0_linear_18_105)"/>
<path d="M14 6c-4.411 0-8 3.589-8 8s3.589 8 8 8 8-3.589 8-8-3.589-8-8-8zm0 14c-3.309 0-6-2.691-6-6s2.691-6 6-6 6 2.691 6 6-2.691 6-6 6z" fill="url(#paint1_linear_18_105)"/>
<path d="M14 10c-2.206 0-4 1.794-4 4s1.794 4 4 4 4-1.794 4-4-1.794-4-4-4zm0 6c-1.103 0-2-.897-2-2s.897-2 2-2 2 .897 2 2-.897 2-2 2z" fill="url(#paint2_linear_18_105)"/>
<path d="M14 12c-1.103 0-2 .897-2 2s.897 2 2 2 2-.897 2-2-.897-2-2-2z" fill="url(#paint3_linear_18_105)"/>
<defs>
<linearGradient id="paint0_linear_18_105" x1="2" y1="14" x2="26" y2="14" gradientUnits="userSpaceOnUse">
<stop stop-color="#2239BD"/>
<stop offset="1" stop-color="#46D3F6"/>
</linearGradient>
<linearGradient id="paint1_linear_18_105" x1="6" y1="14" x2="22" y2="14" gradientUnits="userSpaceOnUse">
<stop stop-color="#2239BD"/>
<stop offset="1" stop-color="#46D3F6"/>
</linearGradient>
<linearGradient id="paint2_linear_18_105" x1="10" y1="14" x2="18" y2="14" gradientUnits="userSpaceOnUse">
<stop stop-color="#2239BD"/>
<stop offset="1" stop-color="#46D3F6"/>
</linearGradient>
<linearGradient id="paint3_linear_18_105" x1="12" y1="14" x2="16" y2="14" gradientUnits="userSpaceOnUse">
<stop stop-color="#2239BD"/>
<stop offset="1" stop-color="#46D3F6"/>
</linearGradient>
</defs>
</svg>
