<svg width="28" height="24" viewBox="0 0 28 24" fill="none" xmlns="http://www.w3.org/2000/svg">
<path d="M22.0531 17.7266C22.4817 17.9147 22.9584 17.9749 23.4225 17.8994C23.8865 17.824 24.3169 17.6163 24.6586 17.3028C25.0004 16.9894 25.2381 16.5844 25.3415 16.1395C25.4449 15.6946 25.4092 15.23 25.239 14.8048C24.4045 12.6921 23.1486 10.7595 21.5432 9.11741C19.9378 7.4753 18.0142 6.15588 15.8824 5.23454C13.7506 4.31321 11.4524 3.80801 9.11915 3.74783C6.78584 3.68765 4.46317 4.07365 2.28385 4.88379C1.69685 5.1018 1.22325 5.53687 0.967225 6.09331C0.711205 6.64974 0.693739 7.28196 0.918672 7.85087C1.14361 8.41979 1.59251 8.8788 2.16664 9.12693C2.74076 9.37506 3.39308 9.39199 3.98008 9.17399C5.57812 8.58008 7.28124 8.29715 8.99214 8.34135C10.703 8.38555 12.3882 8.75602 13.9513 9.43159C15.5145 10.1072 16.9249 11.0746 18.1022 12.2786C19.2794 13.4827 20.2004 14.8997 20.8124 16.4488C21.0351 17.0171 21.4813 17.4766 22.0531 17.7266Z" fill="black"/>
<path d="M15.4753 20.2126C15.9026 20.3952 16.3762 20.4513 16.8364 20.3739C17.2966 20.2964 17.7229 20.0888 18.0617 19.7772C18.4005 19.4656 18.6366 19.0638 18.7405 18.6225C18.8444 18.1811 18.8114 17.7199 18.6455 17.2967C17.6331 14.7407 15.6152 12.6786 13.0352 11.5636C10.4551 10.4485 7.52395 10.3716 4.88542 11.3496C4.34641 11.5976 3.92379 12.0335 3.702 12.5704C3.48022 13.1072 3.47561 13.7053 3.68911 14.2453C3.9026 14.7853 4.31846 15.2273 4.85359 15.483C5.38872 15.7387 6.00371 15.7893 6.57565 15.6247C7.30271 15.3536 8.07779 15.2243 8.85651 15.244C9.63523 15.2637 10.4023 15.4322 11.1137 15.7397C11.8252 16.0471 12.467 16.4876 13.0026 17.0359C13.5381 17.5842 13.9568 18.2295 14.2346 18.9348C14.4573 19.5031 14.9035 19.9627 15.4753 20.2126Z" fill="black"/>
<path d="M7.67841 23.0648C8.8733 23.5813 10.2739 23.0611 10.8067 21.903C11.3396 20.745 10.8029 19.3875 9.608 18.8711C8.41311 18.3547 7.01251 18.8748 6.47967 20.0329C5.94683 21.191 6.48352 22.5484 7.67841 23.0648Z" fill="black"/>
</svg>
