<svg width="136" height="72" viewBox="0 0 136 72" fill="none" xmlns="http://www.w3.org/2000/svg">
<g filter="url(#filter0_i_18_258)">
<path d="M46.6504 58.9552C45.3544 57.517 44.188 55.9481 43.2808 54.2484C42.1144 54.3791 40.948 54.5099 39.652 54.5099C34.8568 54.5099 30.3208 53.0717 26.5624 50.7183C16.8424 53.2024 9.71436 61.9624 9.71436 72.422V84.5813H29.1544C29.5432 73.0757 36.5416 63.2698 46.6504 58.9552Z" fill="#F6F6F6"/>
<path d="M39.6516 47.974C40.0404 47.974 40.4292 47.974 40.818 47.974C40.2996 46.0128 40.0404 44.0516 40.0404 41.9597C40.0404 31.5001 46.3908 22.3479 55.3332 18.4256C51.9636 13.1958 46.1316 9.79639 39.522 9.79639C29.0244 9.79639 20.6003 18.4256 20.6003 28.8852C20.6003 39.3448 29.154 47.974 39.6516 47.974Z" fill="#F6F6F6"/>
<path d="M104.582 50.7183C100.694 53.0717 96.2874 54.5099 91.4922 54.5099C90.3258 54.5099 89.0298 54.3791 87.8634 54.2484C86.9562 55.9481 85.7898 57.517 84.4938 58.9552C94.473 63.2698 101.601 73.2064 101.99 84.712H121.43V72.5527C121.43 61.9624 114.302 53.2024 104.582 50.7183Z" fill="#F6F6F6"/>
<path d="M90.9741 41.9601C90.9741 44.052 90.7149 46.0132 90.1965 47.9744C90.5853 47.9744 90.9741 47.9744 91.3629 47.9744C101.861 47.9744 110.285 39.3452 110.285 28.8856C110.285 18.4259 101.99 9.66602 91.4925 9.66602C84.8829 9.66602 79.0509 13.0654 75.6813 18.2952C84.6237 22.3483 90.9741 31.3697 90.9741 41.9601Z" fill="#F6F6F6"/>
<path d="M95.5096 85.631C95.5096 75.1713 88.3816 66.2807 78.6616 63.9272C74.7735 66.2807 70.3671 67.7189 65.5719 67.7189C60.7767 67.7189 56.2407 66.2807 52.4823 63.9272C42.7623 66.4114 35.6343 75.1713 35.6343 85.631V97.7903H95.5096V85.631Z" fill="#F6F6F6"/>
<path d="M65.5724 22.7407C55.0748 22.7407 46.6508 31.3699 46.6508 41.8295C46.6508 52.4199 55.2044 60.9183 65.5724 60.9183C76.07 60.9183 84.494 52.2892 84.494 41.8295C84.494 31.3699 76.07 22.7407 65.5724 22.7407Z" fill="#F6F6F6"/>
</g>
<defs>
<filter id="filter0_i_18_258" x="9.71436" y="9.66602" width="111.715" height="92.124" filterUnits="userSpaceOnUse" color-interpolation-filters="sRGB">
<feFlood flood-opacity="0" result="BackgroundImageFix"/>
<feBlend mode="normal" in="SourceGraphic" in2="BackgroundImageFix" result="shape"/>
<feColorMatrix in="SourceAlpha" type="matrix" values="0 0 0 0 0 0 0 0 0 0 0 0 0 0 0 0 0 0 127 0" result="hardAlpha"/>
<feOffset dy="5"/>
<feGaussianBlur stdDeviation="2"/>
<feComposite in2="hardAlpha" operator="arithmetic" k2="-1" k3="1"/>
<feColorMatrix type="matrix" values="0 0 0 0 1 0 0 0 0 1 0 0 0 0 1 0 0 0 0.5 0"/>
<feBlend mode="normal" in2="shape" result="effect1_innerShadow_18_258"/>
</filter>
</defs>
</svg>
