<svg width="28" height="24" viewBox="0 0 28 24" fill="none" xmlns="http://www.w3.org/2000/svg">
<path d="M9.60441 12.1979C9.33759 11.9003 9.09745 11.5757 8.91067 11.224C8.67053 11.2511 8.43039 11.2781 8.16357 11.2781C7.17633 11.2781 6.24246 10.9806 5.46868 10.4937C3.46752 11.0076 2 12.82 2 14.9841V17.4999H6.00232C6.08237 15.1194 7.5232 13.0905 9.60441 12.1979Z" fill="url(#paint0_linear_18_100)"/>
<path d="M8.16349 9.92575C8.24353 9.92575 8.32358 9.92575 8.40362 9.92575C8.2969 9.51999 8.24353 9.11422 8.24353 8.68141C8.24353 6.51732 9.55096 4.62375 11.392 3.81222C10.6983 2.73018 9.49759 2.02686 8.1368 2.02686C5.97555 2.02686 4.24121 3.81222 4.24121 5.9763C4.24121 8.14038 6.00223 9.92575 8.16349 9.92575Z" fill="url(#paint1_linear_18_100)"/>
<path d="M21.5314 10.4937C20.7309 10.9806 19.8237 11.2781 18.8365 11.2781C18.5963 11.2781 18.3295 11.2511 18.0894 11.224C17.9026 11.5757 17.6625 11.9003 17.3956 12.1979C19.4502 13.0905 20.9177 15.1464 20.9977 17.5269H25V15.0112C25 12.82 23.5325 11.0076 21.5314 10.4937Z" fill="url(#paint2_linear_18_100)"/>
<path d="M18.7298 8.6816C18.7298 9.11442 18.6764 9.52018 18.5697 9.92595C18.6497 9.92595 18.7298 9.92595 18.8098 9.92595C20.9711 9.92595 22.7054 8.14058 22.7054 5.9765C22.7054 3.81242 20.9978 2 18.8365 2C17.4757 2 16.275 2.70333 15.5813 3.78537C17.4224 4.62395 18.7298 6.49047 18.7298 8.6816Z" fill="url(#paint3_linear_18_100)"/>
<path d="M19.6636 17.717C19.6636 15.5529 18.1961 13.7135 16.1949 13.2266C15.3944 13.7135 14.4872 14.011 13.5 14.011C12.5128 14.011 11.5789 13.7135 10.8051 13.2266C8.80394 13.7405 7.33643 15.5529 7.33643 17.717V20.2328H19.6636V17.717Z" fill="url(#paint4_linear_18_100)"/>
<path d="M13.5001 4.70508C11.3388 4.70508 9.60449 6.49045 9.60449 8.65453C9.60449 10.8457 11.3655 12.604 13.5001 12.604C15.6613 12.604 17.3957 10.8186 17.3957 8.65453C17.3957 6.49045 15.6613 4.70508 13.5001 4.70508Z" fill="url(#paint5_linear_18_100)"/>
<defs>
<linearGradient id="paint0_linear_18_100" x1="2" y1="13.9968" x2="9.60441" y2="13.9968" gradientUnits="userSpaceOnUse">
<stop stop-color="#2239BD"/>
<stop offset="1" stop-color="#46D3F6"/>
</linearGradient>
<linearGradient id="paint1_linear_18_100" x1="4.24121" y1="5.9763" x2="11.392" y2="5.9763" gradientUnits="userSpaceOnUse">
<stop stop-color="#2239BD"/>
<stop offset="1" stop-color="#46D3F6"/>
</linearGradient>
<linearGradient id="paint2_linear_18_100" x1="17.3956" y1="14.0103" x2="25" y2="14.0103" gradientUnits="userSpaceOnUse">
<stop stop-color="#2239BD"/>
<stop offset="1" stop-color="#46D3F6"/>
</linearGradient>
<linearGradient id="paint3_linear_18_100" x1="15.5813" y1="5.96297" x2="22.7054" y2="5.96297" gradientUnits="userSpaceOnUse">
<stop stop-color="#2239BD"/>
<stop offset="1" stop-color="#46D3F6"/>
</linearGradient>
<linearGradient id="paint4_linear_18_100" x1="7.33643" y1="16.7297" x2="19.6636" y2="16.7297" gradientUnits="userSpaceOnUse">
<stop stop-color="#2239BD"/>
<stop offset="1" stop-color="#46D3F6"/>
</linearGradient>
<linearGradient id="paint5_linear_18_100" x1="9.60449" y1="8.65453" x2="17.3957" y2="8.65453" gradientUnits="userSpaceOnUse">
<stop stop-color="#2239BD"/>
<stop offset="1" stop-color="#46D3F6"/>
</linearGradient>
</defs>
</svg>
