<svg width="55" height="26" viewBox="0 0 55 26" fill="none" xmlns="http://www.w3.org/2000/svg">
<path fill-rule="evenodd" clip-rule="evenodd" d="M54.997 11.6432L54.9797 24.8699H49.3316L49.4251 12.9686L47.3136 13.471V24.8699H41.6655V14.8146L39.6475 15.2946V24.8699H34.1893V22.3328H34.0752C33.7189 22.9128 33.2616 23.4244 32.7249 23.8433C32.1363 24.2939 31.4688 24.6308 30.7567 24.8365C29.8754 25.0855 28.9624 25.2036 28.0468 25.187C26.7029 25.187 25.5048 24.9867 24.4525 24.5861C23.4003 24.1856 22.5732 23.5847 21.9712 22.7834C21.3689 21.9822 21.0678 20.9863 21.0679 19.7957C21.0679 18.772 21.2802 17.9207 21.7049 17.2418C22.1379 16.5552 22.7405 15.9918 23.4546 15.6059C24.2521 15.1732 25.1069 14.8556 25.9934 14.6626C26.689 14.5053 27.392 14.3833 28.0999 14.2971L33.9209 13.0766C34.0007 12.925 34.0409 12.7557 34.0376 12.5845V12.4843C34.0485 12.0407 33.9114 11.6061 33.6478 11.2491C33.3534 10.8792 32.9615 10.5989 32.5163 10.4397C31.9438 10.2317 31.3375 10.1327 30.7286 10.1476C30.0951 10.1353 29.4644 10.2341 28.865 10.4397C28.3825 10.6032 27.9435 10.8743 27.5813 11.2325C27.2668 11.5503 27.0463 11.9489 26.9443 12.3842L21.6955 12.0499C21.8806 10.9286 22.397 9.88844 23.1783 9.06321C23.9643 8.2287 25.0039 7.58886 26.2972 7.1437C27.5905 6.69854 29.099 6.476 30.8228 6.47608C32.0068 6.46672 33.1879 6.59556 34.3421 6.85998C35.3371 7.08159 36.2861 7.47409 37.147 8.02005C37.9081 8.50482 38.541 9.16618 38.9918 9.94792C39.3255 10.5454 39.534 11.2047 39.6046 11.8855L41.666 11.4533V0H47.3141V10.2693L55 8.65722V11.6425L54.997 11.6432ZM34.0752 16.6202L28.1411 18.0317C27.9859 18.0686 27.0895 18.3475 26.6383 18.8585C26.5225 19.1045 26.4643 19.3736 26.4683 19.6454C26.4574 20.06 26.5996 20.4641 26.8677 20.7806C27.1671 21.1138 27.5517 21.3591 27.9802 21.4898C28.5116 21.6598 29.0673 21.7415 29.6251 21.7319C30.4312 21.7505 31.2319 21.5968 31.9738 21.2812C32.5896 21.0204 33.1246 20.5999 33.5236 20.0633C33.889 19.5588 34.0824 18.9502 34.0752 18.3274V16.6202ZM49.3877 5.55256H55V7.58253L49.3877 8.65722V5.55256Z" fill="black"/>
<path fill-rule="evenodd" clip-rule="evenodd" d="M7.63569 11.8371C5.35663 11.8371 3.30589 12.6777 1.87679 13.6139L3.01668 9.34609C3.03574 9.27423 3.06879 9.20684 3.11393 9.14778C3.15908 9.08871 3.21543 9.03913 3.27976 9.00187C3.34409 8.96462 3.41514 8.94041 3.48884 8.93065C3.56254 8.92089 3.63744 8.92576 3.70925 8.94499L7.66327 10.0077L11.7086 8.91968C11.7805 8.90042 11.8554 8.89552 11.9291 8.90527C12.0028 8.91501 12.0738 8.93921 12.1382 8.97647C12.2025 9.01373 12.2589 9.06333 12.304 9.12241C12.3492 9.18149 12.3822 9.2489 12.4012 9.32077L13.6108 13.8526C12.1766 12.8363 10.0327 11.8371 7.63569 11.8371ZM0.894522 17.2916C2.65294 18.7627 4.833 19.6376 7.12055 19.7902L6.45102 22.2971C6.43196 22.3689 6.39891 22.4363 6.35377 22.4954C6.30862 22.5544 6.25227 22.604 6.18794 22.6413C6.12361 22.6785 6.05256 22.7027 5.97886 22.7125C5.90516 22.7222 5.83026 22.7174 5.75845 22.6981L0.419271 21.263C0.274204 21.2237 0.150628 21.1285 0.0756569 20.9983C0.000685319 20.868 -0.0195586 20.7134 0.0193668 20.5682L0.894522 17.2916ZM14.4782 17.1025L15.4083 20.5872C15.4473 20.7324 15.4271 20.8871 15.3521 21.0173C15.2772 21.1476 15.1536 21.2428 15.0085 21.2821L9.65002 22.7235C9.5782 22.7427 9.5033 22.7476 9.42959 22.7378C9.35589 22.7281 9.28483 22.7039 9.2205 22.6666C9.15616 22.6294 9.09981 22.5798 9.05467 22.5207C9.00953 22.4616 8.97649 22.3942 8.95744 22.3224L8.27883 19.7802C10.9516 19.583 13.2434 18.2098 14.4782 17.1025ZM7.65742 12.9112C8.22154 12.9112 8.773 13.0785 9.24205 13.3919C9.71109 13.7053 10.0767 14.1508 10.2925 14.6719C10.5084 15.1931 10.5649 15.7666 10.4548 16.3199C10.3448 16.8732 10.0731 17.3814 9.67421 17.7803C9.27531 18.1792 8.76708 18.4508 8.21379 18.5609C7.66051 18.6709 7.08701 18.6144 6.56584 18.3985C6.04467 18.1826 5.59922 17.817 5.28583 17.3479C4.97243 16.8789 4.80517 16.3274 4.8052 15.7633C4.80521 15.3887 4.879 15.0178 5.02236 14.6718C5.16571 14.3258 5.37581 14.0113 5.64068 13.7465C5.90554 13.4817 6.21998 13.2716 6.56603 13.1283C6.91209 12.9849 7.28286 12.9112 7.65742 12.9112Z" fill="black"/>
</svg>
