<svg
    width="100"
    height="100"
    viewBox="0 0 80 80"
    fill="none"
    xmlns="http://www.w3.org/2000/svg"
>
    <g transform="translate(22, 22) scale(1.3)">
        <path
            d="M26.25 14.0001C26.2507 14.2971 26.1745 14.5894 26.0289 14.8483C25.8832 15.1072 25.673 15.3241 25.4187 15.4777L9.66 25.118C9.39431 25.2807 9.09001 25.3695 8.77852 25.3753C8.46703 25.3811 8.15965 25.3036 7.88813 25.1508C7.61918 25.0005 7.39515 24.7812 7.23905 24.5155C7.08296 24.2498 7.00045 23.9474 7 23.6393V4.36084C7.00045 4.05271 7.08296 3.75027 7.23905 3.4846C7.39515 3.21894 7.61918 2.99965 7.88813 2.84928C8.15965 2.69653 8.46703 2.61904 8.77852 2.62481C9.09001 2.63058 9.39431 2.7194 9.66 2.88209L25.4187 12.5224C25.673 12.676 25.8832 12.8929 26.0289 13.1518C26.1745 13.4107 26.2507 13.703 26.25 14.0001Z"
            fill="#333333"
        />
    </g>
</svg>