<svg width="28" height="24" viewBox="0 0 28 24" fill="none" xmlns="http://www.w3.org/2000/svg">
<path d="M19.8534 7.61253H14.7V5.75623C15.8691 5.44624 16.7335 4.3793 16.7335 3.11394C16.7335 1.60667 15.5073 0.380371 14 0.380371C12.4927 0.380371 11.2664 1.60663 11.2664 3.11394C11.2664 4.3793 12.1308 5.44624 13.3 5.75623V7.61253H8.1465C5.75089 7.61253 3.80188 9.5615 3.80188 11.9571V19.2747C3.80188 21.6703 5.75089 23.6193 8.1465 23.6193H19.8534C22.2491 23.6193 24.1981 21.6703 24.1981 19.2747V11.9571C24.1981 9.5615 22.2491 7.61253 19.8534 7.61253ZM8.89466 16.1525C7.75604 16.1525 6.82966 15.2261 6.82966 14.0875C6.82966 12.9488 7.75604 12.0225 8.89466 12.0225C10.0333 12.0225 10.9597 12.9488 10.9597 14.0875C10.9597 15.2261 10.0333 16.1525 8.89466 16.1525ZM15.9075 19.7287H12.0925C11.7059 19.7287 11.3925 19.4153 11.3925 19.0287C11.3925 18.642 11.7059 18.3287 12.0925 18.3287H15.9075C16.2941 18.3287 16.6075 18.642 16.6075 19.0287C16.6075 19.4153 16.2941 19.7287 15.9075 19.7287ZM19.1053 16.1525C17.9667 16.1525 17.0403 15.2261 17.0403 14.0875C17.0403 12.9488 17.9667 12.0225 19.1053 12.0225C20.2439 12.0225 21.1703 12.9488 21.1703 14.0875C21.1703 15.2261 20.2439 16.1525 19.1053 16.1525Z" fill="url(#paint0_linear_381_37)"/>
<path d="M25.598 12.853V18.8982C26.5535 18.2324 27.18 17.1259 27.18 15.8756C27.18 14.6254 26.5535 13.5188 25.598 12.853Z" fill="url(#paint1_linear_381_37)"/>
<path d="M0.819946 15.8756C0.819946 17.1259 1.44648 18.2324 2.40191 18.8982V12.853C1.44648 13.5188 0.819946 14.6254 0.819946 15.8756Z" fill="url(#paint2_linear_381_37)"/>
<defs>
<linearGradient id="paint0_linear_381_37" x1="3.80188" y1="11.9998" x2="24.1981" y2="11.9998" gradientUnits="userSpaceOnUse">
<stop stop-color="#2239BD"/>
<stop offset="0.894231" stop-color="#46D3F6"/>
</linearGradient>
<linearGradient id="paint1_linear_381_37" x1="25.598" y1="15.8756" x2="27.18" y2="15.8756" gradientUnits="userSpaceOnUse">
<stop stop-color="#2239BD"/>
<stop offset="0.894231" stop-color="#46D3F6"/>
</linearGradient>
<linearGradient id="paint2_linear_381_37" x1="0.819946" y1="15.8756" x2="2.40191" y2="15.8756" gradientUnits="userSpaceOnUse">
<stop stop-color="#2239BD"/>
<stop offset="0.894231" stop-color="#46D3F6"/>
</linearGradient>
</defs>
</svg>
