<svg width="673" height="604" viewBox="0 0 673 604" fill="none" xmlns="http://www.w3.org/2000/svg">
<g filter="url(#filter0_i_18_40)">
<path fill-rule="evenodd" clip-rule="evenodd" d="M333.09 128.107C233.671 128.107 144.212 164.779 81.8707 205.617L131.596 19.4426C132.427 16.308 133.869 13.3682 135.838 10.7916C137.808 8.21502 140.266 6.05218 143.072 4.42692C145.879 2.80165 148.978 1.74592 152.193 1.32013C155.408 0.894344 158.675 1.10688 161.808 1.94558L334.293 48.3056L510.763 0.841246C513.896 0.00112153 517.164 -0.212461 520.379 0.212696C523.595 0.637852 526.694 1.69339 529.501 3.31885C532.308 4.94431 534.766 7.1077 536.735 9.68503C538.704 12.2624 540.145 15.203 540.975 18.3383L593.743 216.03C531.177 171.696 437.655 128.107 333.09 128.107ZM39.0215 366.049C115.729 430.222 210.829 468.386 310.618 475.042L281.411 584.399C280.58 587.534 279.138 590.474 277.169 593.05C275.199 595.627 272.741 597.79 269.935 599.415C267.129 601.04 264.029 602.096 260.814 602.522C257.599 602.948 254.332 602.735 251.199 601.896L18.2897 539.289C11.9616 537.578 6.57083 533.425 3.30036 527.744C0.0298955 522.062 -0.853199 515.315 0.844833 508.984L39.0215 366.049ZM631.581 357.798L672.154 509.812C673.853 516.144 672.972 522.891 669.702 528.574C666.433 534.257 661.042 538.41 654.714 540.123L420.96 603.001C417.828 603.84 414.56 604.053 411.345 603.628C408.13 603.202 405.03 602.146 402.224 600.521C399.417 598.896 396.959 596.733 394.99 594.156C393.021 591.579 391.579 588.638 390.748 585.504L361.146 474.609C477.738 466.004 577.714 406.101 631.581 357.798ZM334.038 174.962C358.646 174.962 382.702 182.26 403.164 195.931C423.625 209.603 439.572 229.036 448.989 251.771C458.406 274.507 460.87 299.524 456.069 323.66C451.267 347.795 439.417 369.965 422.016 387.366C404.614 404.766 382.444 416.616 358.308 421.416C334.172 426.216 309.155 423.752 286.42 414.334C263.685 404.916 244.253 388.967 230.582 368.505C216.911 348.044 209.615 323.987 209.616 299.379C209.617 283.04 212.836 266.86 219.089 251.765C225.342 236.67 234.508 222.954 246.062 211.401C257.616 199.848 271.333 190.683 286.428 184.431C301.524 178.179 317.699 174.962 334.038 174.962Z" fill="url(#paint0_linear_18_40)"/>
</g>
<defs>
<filter id="filter0_i_18_40" x="0" y="0" width="673" height="633.241" filterUnits="userSpaceOnUse" color-interpolation-filters="sRGB">
<feFlood flood-opacity="0" result="BackgroundImageFix"/>
<feBlend mode="normal" in="SourceGraphic" in2="BackgroundImageFix" result="shape"/>
<feColorMatrix in="SourceAlpha" type="matrix" values="0 0 0 0 0 0 0 0 0 0 0 0 0 0 0 0 0 0 127 0" result="hardAlpha"/>
<feOffset dy="39"/>
<feGaussianBlur stdDeviation="14.7"/>
<feComposite in2="hardAlpha" operator="arithmetic" k2="-1" k3="1"/>
<feColorMatrix type="matrix" values="0 0 0 0 1 0 0 0 0 1 0 0 0 0 1 0 0 0 0.8 0"/>
<feBlend mode="normal" in2="shape" result="effect1_innerShadow_18_40"/>
</filter>
<linearGradient id="paint0_linear_18_40" x1="336.5" y1="0" x2="336.5" y2="603.841" gradientUnits="userSpaceOnUse">
<stop offset="0.7" stop-color="#F6F6F6"/>
<stop offset="1" stop-color="white"/>
</linearGradient>
</defs>
</svg>
