                                    <svg
                                        width="17"
                                        height="16"
                                        viewBox="0 0 17 16"
                                        fill="none"
                                        xmlns="http://www.w3.org/2000/svg"
                                    >
                                        <path
                                            d="M15.973 7.07459L12.8089 9.80482L13.7729 13.8879C13.8261 14.1095 13.8124 14.342 13.7335 14.5558C13.6547 14.7697 13.5142 14.9554 13.3299 15.0895C13.1456 15.2236 12.9256 15.3 12.6979 15.3091C12.4701 15.3183 12.2447 15.2597 12.0502 15.1408L8.49947 12.9555L4.94658 15.1408C4.75211 15.259 4.52703 15.317 4.29966 15.3076C4.07229 15.2981 3.85281 15.2215 3.66886 15.0876C3.48491 14.9536 3.3447 14.7682 3.2659 14.5547C3.1871 14.3413 3.17323 14.1092 3.22603 13.8879L4.19353 9.80482L1.02947 7.07459C0.857412 6.92589 0.732978 6.72979 0.671706 6.51079C0.610434 6.29179 0.615039 6.05959 0.684947 5.84319C0.754855 5.62679 0.886968 5.43578 1.06479 5.29401C1.2426 5.15225 1.45824 5.06601 1.68478 5.04607L5.83322 4.71139L7.43353 0.838574C7.52015 0.627508 7.66758 0.446968 7.85707 0.319906C8.04656 0.192844 8.26956 0.125 8.49771 0.125C8.72586 0.125 8.94886 0.192844 9.13835 0.319906C9.32784 0.446968 9.47527 0.627508 9.56189 0.838574L11.1615 4.71139L15.3099 5.04607C15.5369 5.06527 15.7532 5.15103 15.9317 5.29259C16.1101 5.43416 16.2428 5.62525 16.3132 5.84191C16.3835 6.05857 16.3884 6.29118 16.3271 6.51058C16.2658 6.72998 16.1412 6.92642 15.9688 7.07529L15.973 7.07459Z"
                                            fill="url(#paint0_linear_618_461)"
                                        />
                                        <defs>
                                            <linearGradient
                                                id="paint0_linear_618_461"
                                                x1="0.628906"
                                                y1="7.71753"
                                                x2="16.3697"
                                                y2="7.71753"
                                                gradientUnits="userSpaceOnUse"
                                            >
                                                <stop stop-color="#FF6C6C" />
                                                <stop offset="1" stop-color="#FFA2A3" />
                                            </linearGradient>
                                        </defs>
                                    </svg>

