<svg width="18" height="15" viewBox="0 0 18 15" fill="none" xmlns="http://www.w3.org/2000/svg">
<path d="M16.258 0.12191C16.258 0.12191 17.8769 -0.50934 17.742 1.0237C17.697 1.65496 17.2923 3.86433 16.9775 6.25408L15.8983 13.3331C15.8983 13.3331 15.8084 14.3702 14.9989 14.5505C14.1895 14.7309 12.9753 13.9193 12.7505 13.7389C12.5706 13.6037 9.37783 11.5746 8.25358 10.5827C7.93879 10.3121 7.57904 9.77104 8.29854 9.13979L13.0203 4.63087C13.5599 4.08979 14.0995 2.82729 11.8511 4.36033L5.55546 8.64383C5.55546 8.64383 4.83596 9.09471 3.48692 8.68891L0.563925 7.78712C0.563925 7.78712 -0.515329 7.11079 1.3284 6.43441C5.82529 4.31521 11.3565 2.15091 16.258 0.12191Z" fill="#000"/>
</svg>
