<svg width="196" height="76" viewBox="0 0 196 76" fill="none" xmlns="http://www.w3.org/2000/svg">
<g clip-path="url(#clip0_18_254)">
<g filter="url(#filter0_i_18_254)">
<path d="M172.49 44.9615V55.2794H28V44.9615C28 32.4144 38.1554 22.2591 50.7025 22.2591H56.8948V36.7104C56.8948 40.0929 59.7046 42.9027 63.0871 42.9027C66.4696 42.9027 69.2794 40.0929 69.2794 36.7104V22.2591H131.202V36.7104C131.202 40.0929 134.012 42.9027 137.395 42.9027C140.777 42.9027 143.587 40.0929 143.587 36.7104V22.2591H149.779C162.327 22.2591 172.482 32.4144 172.482 44.9615H172.49ZM28 67.664V127.52C28 140.067 38.1554 150.223 50.7025 150.223H93.1431C91.0763 144.441 89.9231 138.171 89.9231 131.646C89.9231 100.932 114.94 75.9151 145.654 75.9151C155.399 75.9151 164.478 78.3921 172.49 82.8505V67.6561L28 67.664ZM189 131.654C189 155.555 169.556 175 145.654 175C121.752 175 102.308 155.556 102.308 131.654C102.308 107.752 121.752 88.3077 145.654 88.3077C169.556 88.3077 189 107.752 189 131.654ZM168.356 135.779C168.356 132.358 165.585 129.587 162.164 129.587H151.846V119.269C151.846 115.848 149.075 113.077 145.654 113.077C142.233 113.077 139.462 115.848 139.462 119.269V135.779C139.462 139.201 142.233 141.972 145.654 141.972H162.164C165.585 141.972 168.356 139.201 168.356 135.779ZM63.0871 14C59.7046 14 56.8948 16.8098 56.8948 20.1923V22.2591H69.2794V20.1923C69.2794 16.8098 66.4696 14 63.0871 14ZM137.395 14C134.012 14 131.202 16.8098 131.202 20.1923V22.2591H143.587V20.1923C143.587 16.8098 140.777 14 137.395 14Z" fill="#F6F6F6"/>
</g>
</g>
<defs>
<filter id="filter0_i_18_254" x="28" y="14" width="161" height="165" filterUnits="userSpaceOnUse" color-interpolation-filters="sRGB">
<feFlood flood-opacity="0" result="BackgroundImageFix"/>
<feBlend mode="normal" in="SourceGraphic" in2="BackgroundImageFix" result="shape"/>
<feColorMatrix in="SourceAlpha" type="matrix" values="0 0 0 0 0 0 0 0 0 0 0 0 0 0 0 0 0 0 127 0" result="hardAlpha"/>
<feOffset dy="5"/>
<feGaussianBlur stdDeviation="2"/>
<feComposite in2="hardAlpha" operator="arithmetic" k2="-1" k3="1"/>
<feColorMatrix type="matrix" values="0 0 0 0 1 0 0 0 0 1 0 0 0 0 1 0 0 0 0.5 0"/>
<feBlend mode="normal" in2="shape" result="effect1_innerShadow_18_254"/>
</filter>
<clipPath id="clip0_18_254">
<rect width="196" height="111" fill="white"/>
</clipPath>
</defs>
</svg>
