<svg width="28" height="28" viewBox="0 0 28 28" fill="none" xmlns="http://www.w3.org/2000/svg">
<path d="M24.6414 6.42308V7.89706H4V6.42308C4 4.63063 5.45077 3.17986 7.24321 3.17986H8.12783V5.24434C8.12783 5.72756 8.52923 6.12896 9.01244 6.12896C9.49566 6.12896 9.89706 5.72756 9.89706 5.24434V3.17986H18.7432V5.24434C18.7432 5.72756 19.1446 6.12896 19.6278 6.12896C20.111 6.12896 20.5124 5.72756 20.5124 5.24434V3.17986H21.3971C23.1895 3.17986 24.6403 4.63063 24.6403 6.42308H24.6414ZM4 9.66629V18.2172C4 20.0096 5.45077 21.4604 7.24321 21.4604H13.3062C13.0109 20.6344 12.8462 19.7387 12.8462 18.8066C12.8462 14.4189 16.42 10.845 20.8077 10.845C22.1999 10.845 23.4969 11.1989 24.6414 11.8358V9.66516L4 9.66629ZM27 18.8077C27 22.2222 24.2223 25 20.8077 25C17.3931 25 14.6154 22.2223 14.6154 18.8077C14.6154 15.3931 17.3931 12.6154 20.8077 12.6154C24.2223 12.6154 27 15.3931 27 18.8077ZM24.0509 19.3971C24.0509 18.9083 23.655 18.5124 23.1663 18.5124H21.6923V17.0385C21.6923 16.5497 21.2965 16.1538 20.8077 16.1538C20.3189 16.1538 19.9231 16.5497 19.9231 17.0385V19.3971C19.9231 19.8858 20.3189 20.2817 20.8077 20.2817H23.1663C23.655 20.2817 24.0509 19.8858 24.0509 19.3971ZM9.01244 2C8.52923 2 8.12783 2.4014 8.12783 2.88462V3.17986H9.89706V2.88462C9.89706 2.4014 9.49566 2 9.01244 2ZM19.6278 2C19.1446 2 18.7432 2.4014 18.7432 2.88462V3.17986H20.5124V2.88462C20.5124 2.4014 20.111 2 19.6278 2Z" fill="url(#paint0_linear_18_85)"/>
<defs>
<linearGradient id="paint0_linear_18_85" x1="4" y1="13.5" x2="27" y2="13.5" gradientUnits="userSpaceOnUse">
<stop stop-color="#2239BD"/>
<stop offset="1" stop-color="#46D3F6"/>
</linearGradient>
</defs>
</svg>
